<?xml version="1.0" encoding="utf-8"?>
<!-- Generator: Adobe Illustrator 23.0.0, SVG Export Plug-In . SVG Version: 6.00 Build 0)  -->
<svg version="1.1" id="Layer_1" xmlns="http://www.w3.org/2000/svg" xmlns:xlink="http://www.w3.org/1999/xlink" x="0px" y="0px"
	 viewBox="0 0 283.5 58.9" style="enable-background:new 0 0 283.5 58.9;" xml:space="preserve">
<style type="text/css">
	.st0{fill:#4AA942;}
	.st1{fill:#00AEDB;}
	.st2{fill:#939598;}
</style>
<title>DahabshilBanklogo</title>
<rect x="151.5" y="49.1" class="st0" width="1" height="7.4"/>
<path class="st0" d="M153.9,55.5c0.4,0.2,0.8,0.4,1.3,0.4c0.7,0,1-0.3,1-0.8s-0.3-0.7-1-1c-1-0.3-1.4-0.9-1.4-1.5
	c0-0.9,0.8-1.6,1.7-1.6c0,0,0.1,0,0.1,0c0.5,0,0.9,0.1,1.3,0.3l-0.2,0.7c-0.3-0.2-0.7-0.3-1.1-0.3c-0.6,0-0.9,0.3-0.9,0.7
	s0.3,0.6,1,0.9c0.9,0.3,1.4,0.8,1.4,1.6s-0.7,1.6-2,1.6c-0.5,0-1-0.1-1.5-0.4L153.9,55.5z"/>
<rect x="158.4" y="48.7" class="st0" width="1" height="7.8"/>
<path class="st0" d="M164.7,55.2c0,0.4,0,0.8,0.1,1.3h-0.9l-0.1-0.7l0,0c-0.4,0.5-1,0.8-1.6,0.8c-0.8,0.1-1.6-0.6-1.6-1.4
	c0,0,0-0.1,0-0.1c0-1.3,1.1-2,3.2-2V53c0.1-0.6-0.3-1.1-0.9-1.2c-0.1,0-0.2,0-0.3,0c-0.5,0-1,0.1-1.4,0.4l-0.2-0.7
	c0.5-0.3,1.1-0.5,1.8-0.5c1.6,0,2,1.1,2,2.2L164.7,55.2z M163.8,53.8c-1.1,0-2.3,0.2-2.3,1.2c0,0.5,0.3,0.9,0.8,0.9c0,0,0.1,0,0.1,0
	c0.6,0,1.1-0.3,1.3-0.9c0-0.1,0-0.2,0-0.3L163.8,53.8z"/>
<path class="st0" d="M166.3,52.6c0-0.6,0-1,0-1.4h0.8v0.9l0,0c0.3-0.6,1-1,1.7-1c0.7,0,1.3,0.4,1.5,1.1l0,0c0.1-0.3,0.4-0.5,0.6-0.7
	c0.3-0.3,0.7-0.4,1.2-0.4c0.7,0,1.8,0.5,1.8,2.3v3.1h-0.9v-3c0-1-0.4-1.6-1.1-1.6c-0.5,0-1,0.4-1.1,0.9c0,0.2-0.1,0.3-0.1,0.5v3.3
	h-0.9v-3.2c0-0.8-0.4-1.5-1.1-1.5c-0.7,0.1-1.3,0.7-1.3,1.4v3.2h-0.9V52.6z"/>
<path class="st0" d="M175.8,50.2c-0.3,0-0.6-0.3-0.6-0.6c0-0.3,0.3-0.6,0.6-0.6c0.3,0,0.6,0.3,0.6,0.6
	C176.5,49.9,176.2,50.2,175.8,50.2C175.9,50.2,175.9,50.2,175.8,50.2L175.8,50.2z M175.4,51.2h1v5.3h-1V51.2z"/>
<path class="st0" d="M181.7,56.3c-0.5,0.2-1,0.3-1.5,0.3c-1.4,0.1-2.6-1-2.6-2.4c0-0.1,0-0.2,0-0.3c-0.1-1.5,1.1-2.8,2.6-2.8
	c0.1,0,0.2,0,0.3,0c0.5,0,0.9,0.1,1.3,0.3l-0.2,0.7c-0.3-0.2-0.7-0.3-1.1-0.3c-1,0-1.9,0.8-1.9,1.8c0,0.1,0,0.1,0,0.2
	c-0.1,1,0.6,1.9,1.6,2c0.1,0,0.1,0,0.2,0c0.4,0,0.8-0.1,1.2-0.3L181.7,56.3z"/>
<path class="st0" d="M185.2,48.7h1V52l0,0c0.4-0.6,1.1-1,1.8-1c1.3,0,2.2,1.1,2.2,2.7c0,1.9-1.2,2.9-2.4,2.9c-0.7,0-1.4-0.4-1.8-1
	l0,0l-0.1,0.9h-0.8c0-0.4,0-0.9,0-1.4L185.2,48.7z M186.2,54.4c0,0.1,0,0.2,0,0.3c0.2,0.7,0.8,1.1,1.4,1.1c1,0,1.6-0.8,1.6-2
	s-0.6-2-1.6-2c-0.7,0-1.3,0.5-1.5,1.2c0,0.1,0,0.3-0.1,0.4L186.2,54.4z"/>
<path class="st0" d="M195.2,55.2c0,0.4,0,0.8,0.1,1.3h-0.9l-0.1-0.7l0,0c-0.4,0.5-1,0.8-1.6,0.8c-0.8,0.1-1.6-0.6-1.6-1.4
	c0,0,0-0.1,0-0.1c0-1.3,1.1-2,3.2-2V53c0.1-0.6-0.3-1.1-0.9-1.2c-0.1,0-0.2,0-0.3,0c-0.5,0-1,0.1-1.4,0.4l-0.2-0.7
	c0.5-0.3,1.1-0.5,1.8-0.5c1.6,0,2,1.1,2,2.2V55.2z M194.3,53.8c-1,0-2.3,0.2-2.3,1.2c0,0.5,0.3,0.9,0.8,0.9c0,0,0.1,0,0.1,0
	c0.6,0,1.1-0.3,1.3-0.9c0-0.1,0-0.2,0-0.3L194.3,53.8z"/>
<path class="st0" d="M196.7,52.6c0-0.6,0-1,0-1.4h0.9l0.1,0.9l0,0c0.4-0.6,1-1,1.8-1c0.7,0,1.9,0.4,1.9,2.3v3.2h-1v-3.1
	c0-0.9-0.3-1.6-1.2-1.6c-0.6,0-1.1,0.4-1.3,1c-0.1,0.1-0.1,0.3-0.1,0.4v3.2h-1L196.7,52.6z"/>
<path class="st0" d="M203.8,53.6L203.8,53.6c0.1-0.2,0.3-0.4,0.5-0.6l1.6-1.8h1.1l-2,2.2l2.4,3.1h-1.2l-1.8-2.6l-0.5,0.6v2h-1v-7.8
	h1L203.8,53.6z"/>
<path class="st0" d="M208.6,50.2c-0.3,0-0.6-0.3-0.6-0.6c0-0.3,0.3-0.6,0.6-0.6c0.3,0,0.6,0.3,0.6,0.6
	C209.3,49.9,209,50.2,208.6,50.2C208.6,50.2,208.6,50.2,208.6,50.2z M208.1,51.2h1v5.3h-1V51.2z"/>
<path class="st0" d="M210.7,52.6c0-0.6,0-1,0-1.4h0.9l0.1,0.9l0,0c0.4-0.6,1-1,1.8-1c0.7,0,1.9,0.4,1.9,2.3v3.2h-1v-3.1
	c0-0.9-0.3-1.6-1.2-1.6c-0.6,0-1.1,0.4-1.3,1c0,0.1-0.1,0.3-0.1,0.4v3.2h-1L210.7,52.6z"/>
<path class="st0" d="M221.3,55.7c0.1,0.9-0.2,1.8-0.8,2.4c-0.5,0.4-1.2,0.7-1.9,0.6c-0.6,0-1.2-0.1-1.8-0.4l0.2-0.8
	c0.5,0.3,1,0.4,1.6,0.4c1,0,1.7-0.5,1.7-1.9v-0.6l0,0c-0.4,0.6-1,0.9-1.7,0.9c-1.3-0.1-2.3-1.2-2.3-2.5c0,0,0-0.1,0-0.1
	c-0.2-1.4,0.9-2.6,2.3-2.8c0,0,0.1,0,0.1,0c0.7,0,1.3,0.3,1.6,0.9l0,0v-0.8h0.9c0,0.4,0,0.8,0,1.4L221.3,55.7z M220.3,53.3
	c0-0.1,0-0.3-0.1-0.4c-0.2-0.6-0.7-1-1.4-1c-0.9,0-1.6,0.8-1.6,2c0,1,0.5,1.9,1.6,1.9c0.6,0,1.2-0.4,1.3-1c0.1-0.2,0.1-0.3,0.1-0.5
	L220.3,53.3z"/>
<path class="st0" d="M225.6,51.2l1.1,3.1c0.1,0.4,0.3,0.8,0.4,1.1l0,0c0.1-0.3,0.2-0.7,0.4-1.1l1.1-3.1h1l-1.4,3.8
	c-0.3,1.2-0.9,2.4-1.8,3.3c-0.3,0.3-0.7,0.5-1.2,0.6l-0.2-0.8c0.3-0.1,0.6-0.3,0.8-0.5c0.3-0.3,0.6-0.7,0.8-1.1
	c0-0.1,0.1-0.2,0.1-0.2c0-0.1,0-0.2-0.1-0.2l-2-4.9L225.6,51.2z"/>
<path class="st0" d="M232.5,56.6c-1.4,0-2.5-1.1-2.5-2.5c0-0.1,0-0.2,0-0.2c-0.1-1.4,0.9-2.7,2.4-2.8c0.1,0,0.2,0,0.3,0
	c1.4,0,2.5,1.1,2.6,2.5c0,0.1,0,0.2,0,0.3c0.1,1.4-0.9,2.7-2.4,2.8C232.7,56.6,232.6,56.6,232.5,56.6L232.5,56.6z M232.5,55.9
	c0.9,0,1.6-0.9,1.6-2.1c0-0.9-0.4-2-1.6-2s-1.6,1.1-1.6,2.1C230.9,55.1,231.5,55.9,232.5,55.9L232.5,55.9z"/>
<path class="st0" d="M240.8,55.1c0,0.6,0,1,0,1.4h-0.9l-0.1-0.9l0,0c-0.4,0.6-1,1-1.8,1c-0.8,0-1.8-0.5-1.8-2.3v-3.1h1v2.9
	c0,1,0.3,1.7,1.2,1.7c0.6,0,1.1-0.4,1.3-0.9c0.1-0.2,0.1-0.3,0.1-0.5v-3.3h1L240.8,55.1z"/>
<path class="st0" d="M248.5,56.3c-0.5,0.2-1,0.3-1.5,0.3c-1.4,0.1-2.6-1-2.7-2.4c0-0.1,0-0.2,0-0.4c-0.1-1.5,1.1-2.8,2.6-2.8
	c0.1,0,0.2,0,0.3,0c0.5,0,0.9,0.1,1.3,0.3l-0.2,0.7c-0.3-0.2-0.7-0.3-1.1-0.3c-1,0-1.9,0.8-1.9,1.8c0,0.1,0,0.1,0,0.2
	c-0.1,1,0.6,1.9,1.7,2c0.1,0,0.1,0,0.2,0c0.4,0,0.8-0.1,1.2-0.3L248.5,56.3z"/>
<path class="st0" d="M253.4,55.2c0,0.4,0,0.8,0.1,1.3h-0.9l-0.1-0.7l0,0c-0.4,0.5-1,0.8-1.6,0.8c-0.8,0.1-1.6-0.6-1.6-1.4
	c0,0,0-0.1,0-0.1c0-1.3,1.1-2,3.2-2V53c0.1-0.6-0.3-1.1-0.9-1.2c-0.1,0-0.2,0-0.3,0c-0.5,0-1,0.1-1.4,0.4l-0.2-0.7
	c0.5-0.3,1.1-0.5,1.8-0.5c1.6,0,2,1.1,2,2.2L253.4,55.2z M252.4,53.8c-1,0-2.2,0.2-2.2,1.2c0,0.5,0.3,0.9,0.8,0.9c0,0,0.1,0,0.1,0
	c0.6,0,1.1-0.3,1.3-0.9c0-0.1,0-0.2,0-0.3L252.4,53.8z"/>
<path class="st0" d="M254.9,52.6c0-0.6,0-1,0-1.4h0.9l0,0.9l0,0c0.4-0.6,1-1,1.8-1c0.7,0,1.9,0.4,1.9,2.3v3.2h-1v-3.1
	c0-0.9-0.3-1.6-1.2-1.6c-0.8,0-1.4,0.7-1.4,1.4v3.2h-1L254.9,52.6z"/>
<path class="st0" d="M264.5,49.9v1.3h1.4v0.7h-1.4v2.9c0,0.7,0.2,1,0.7,1c0.2,0,0.4,0,0.6-0.1v0.7c-0.3,0.1-0.6,0.1-0.9,0.1
	c-0.4,0-0.7-0.1-1-0.4c-0.3-0.4-0.4-0.9-0.4-1.4v-2.9h-0.8v-0.7h0.8v-1L264.5,49.9z"/>
<path class="st0" d="M267,52.8c0-0.6,0-1.2,0-1.7h0.9v1l0,0c0.2-0.6,0.8-1.1,1.5-1.1c0.1,0,0.2,0,0.3,0V52h-0.3
	c-0.7,0-1.2,0.6-1.3,1.2c0,0.2,0,0.3,0,0.5v2.8h-1L267,52.8z"/>
<path class="st0" d="M275,55.1c0,0.6,0,1,0,1.4h-0.9l-0.1-0.9l0,0c-0.4,0.6-1,1-1.8,1c-0.8,0-1.8-0.5-1.8-2.3v-3.1h1v2.9
	c0,1,0.3,1.7,1.2,1.7c0.8,0,1.4-0.6,1.4-1.4c0,0,0,0,0,0v-3.2h1L275,55.1z"/>
<path class="st0" d="M276.4,55.5c0.4,0.2,0.8,0.4,1.3,0.4c0.7,0,1-0.3,1-0.8s-0.3-0.7-1-1c-1-0.3-1.4-0.9-1.4-1.5
	c0-0.9,0.8-1.6,1.7-1.6c0,0,0.1,0,0.1,0c0.5,0,0.9,0.1,1.3,0.3l-0.2,0.7c-0.3-0.2-0.7-0.3-1.1-0.3c-0.6,0-0.9,0.3-0.9,0.7
	s0.3,0.6,1,0.9c0.9,0.3,1.4,0.8,1.4,1.6s-0.7,1.6-2,1.6c-0.5,0-1-0.1-1.5-0.4L276.4,55.5z"/>
<path class="st0" d="M282.1,49.9v1.3h1.4v0.7h-1.4v2.9c0,0.7,0.2,1,0.7,1c0.2,0,0.4,0,0.6-0.1v0.7c-0.3,0.1-0.6,0.1-0.9,0.1
	c-0.4,0-0.7-0.1-1-0.4c-0.3-0.4-0.4-0.9-0.4-1.4v-2.9h-0.9v-0.7h0.8v-1L282.1,49.9z"/>
<path class="st1" d="M52.3,27.4c0,0,4.2-2,2.9-8.3S44.9,4.6,38.8,2.5c0,0-5.1-2.9-13.9,2.3c-1.7,1-9.2,5.5-10.7,12.1
	c-0.9,3.9,0.6,7.1,3.5,8.4c0,0,8.9-10.6,17.9-12.6S55.8,16.4,52.3,27.4"/>
<path class="st0" d="M3.2,13.7c0,0-4.2,2-2.9,8.3s10.3,14.5,16.4,16.7c0,0,5.1,2.9,13.9-2.3c1.7-1,9.2-5.5,10.7-12.1
	c0.9-3.9-0.6-7.1-3.5-8.4c0,0-8.9,10.6-17.9,12.6S-0.3,24.8,3.2,13.7"/>
<path class="st1" d="M69.1,1.5C71.2,1.2,73.3,1,75.4,1c4.2,0,7.2,0.9,9.2,2.8s3.2,4.5,3.2,8.2c0.1,3.3-1,6.4-3.3,8.8
	c-2.2,2.1-5.7,3.3-10.1,3.3c-1.8,0-3.6-0.1-5.3-0.3L69.1,1.5z M72.1,21.6c1,0.1,2,0.2,3,0.1c6.3,0,9.7-3.5,9.7-9.6
	c0-5.4-3-8.7-9.2-8.7c-1.2,0-2.3,0.1-3.4,0.3L72.1,21.6z"/>
<path class="st1" d="M102.8,20c0,1.3,0.1,2.6,0.2,3.9h-2.7l-0.3-2h-0.1c-1.2,1.6-3,2.5-5,2.4c-2.6,0.2-4.8-1.7-5-4.3
	c0-0.1,0-0.3,0-0.4c0-3.9,3.5-6.1,9.8-6v-0.3c0-1.3-0.4-3.8-3.7-3.8c-1.5,0-3,0.4-4.3,1.2l-0.7-2c1.6-0.9,3.5-1.4,5.4-1.4
	c5,0,6.2,3.4,6.2,6.7L102.8,20z M100,15.6c-3.2-0.1-6.9,0.5-6.9,3.7c-0.1,1.4,0.9,2.7,2.4,2.8c0.1,0,0.3,0,0.4,0
	c1.8,0.1,3.4-1,4-2.7c0.1-0.3,0.1-0.6,0.1-0.9V15.6z"/>
<path class="st1" d="M107.6,0h3v10.2h0.1c0.5-0.9,1.2-1.6,2.1-2.1c0.9-0.6,1.9-0.8,3-0.8c2.2,0,5.7,1.3,5.7,7v9.7h-3v-9.4
	c0-2.6-1-4.8-3.8-4.8c-1.8,0-3.4,1.2-4,3c-0.2,0.5-0.2,0.9-0.2,1.4v9.8h-3L107.6,0z"/>
<path class="st1" d="M137.7,20c0,1.3,0.1,2.6,0.2,3.9h-2.7l-0.3-2h-0.1c-1.2,1.6-3,2.5-5,2.4c-2.5,0.2-4.8-1.7-5-4.2
	c0-0.1,0-0.3,0-0.4c0-3.9,3.5-6.1,9.8-6v-0.3c0-1.3-0.4-3.8-3.7-3.8c-1.5,0-3,0.4-4.3,1.2l-0.7-2c1.6-0.9,3.5-1.4,5.4-1.4
	c5,0,6.2,3.4,6.2,6.7L137.7,20z M134.8,15.6c-3.2-0.1-6.9,0.5-6.9,3.7c-0.1,1.4,0.9,2.7,2.3,2.8c0.1,0,0.3,0,0.4,0
	c1.8,0.1,3.4-1,4-2.7c0.1-0.3,0.1-0.6,0.1-0.9L134.8,15.6z"/>
<path class="st1" d="M142.5,0h3v10.2h0.1c1.1-2,3.3-3.1,5.6-3c4,0,6.9,3.4,6.9,8.3c0,5.9-3.7,8.7-7.3,8.7c-2.3,0.1-4.4-1.1-5.4-3.1
	h-0.1l-0.2,2.7h-2.6c0.1-1.1,0.1-2.8,0.1-4.2L142.5,0z M145.5,17.4c0,0.4,0,0.7,0.1,1.1c0.5,2,2.3,3.5,4.4,3.5
	c3.1,0,4.9-2.5,4.9-6.3c0-3.3-1.7-6.1-4.9-6.1c-2.1,0-4,1.5-4.5,3.6c-0.1,0.4-0.2,0.8-0.2,1.2L145.5,17.4z"/>
<path class="st1" d="M161.2,20.9c1.2,0.7,2.5,1.1,3.9,1.2c2.1,0,3.1-1,3.1-2.4s-0.8-2.2-3-3c-3-1.1-4.3-2.7-4.3-4.6
	c0-2.6,2.1-4.8,5.6-4.8c1.4,0,2.8,0.3,4,1l-0.7,2.1c-1-0.6-2.2-0.9-3.3-0.9c-1.7,0-2.7,1-2.7,2.2c0,1.4,0.9,2,3.1,2.8
	c2.8,1,4.3,2.5,4.3,4.9c0,2.9-2.3,4.9-6.1,4.9c-1.6,0-3.2-0.4-4.6-1.1L161.2,20.9z"/>
<path class="st1" d="M174.9,0h3v10.2h0.1c0.5-0.9,1.2-1.6,2.1-2.1c0.9-0.6,1.9-0.8,3-0.8c2.2,0,5.7,1.3,5.7,7v9.7h-3v-9.4
	c0-2.6-1-4.8-3.8-4.8c-1.8,0-3.4,1.2-4,3c-0.2,0.5-0.2,0.9-0.2,1.4v9.8h-3L174.9,0z"/>
<path class="st1" d="M195,4.6c-1,0-1.9-0.9-1.9-1.9s0.9-1.9,1.9-1.9c1,0,1.8,0.8,1.9,1.8c0,0,0,0.1,0,0.1c0,1-0.8,1.9-1.8,1.9
	C195.1,4.6,195.1,4.6,195,4.6L195,4.6z M193.6,7.6h3v16.3h-3V7.6z"/>
<rect x="201.4" class="st1" width="3" height="23.9"/>
<path class="st0" d="M216.5,1.6c1.8-0.4,3.6-0.5,5.4-0.5c2.9,0,4.8,0.5,6.2,1.6c1.3,0.9,2,2.4,1.9,4c-0.1,2.3-1.6,4.3-3.8,5v0.1
	c2.7,0.5,4.7,2.9,4.7,5.6c0,1.7-0.7,3.4-2,4.5c-1.5,1.5-4.1,2.1-7.8,2.1c-1.5,0-3-0.1-4.5-0.3L216.5,1.6z M219.5,10.8h2.6
	c3.1,0,4.9-1.6,4.9-3.8c0-2.6-2-3.7-4.9-3.7c-0.9,0-1.7,0.1-2.6,0.2L219.5,10.8z M219.5,21.7c0.8,0.1,1.6,0.2,2.4,0.1
	c3,0,5.8-1.1,5.8-4.4c0-3.1-2.6-4.4-5.9-4.4h-2.4V21.7z"/>
<path class="st0" d="M246.2,20c0,1.3,0.1,2.6,0.2,3.9h-2.6l-0.3-2h-0.1c-1.2,1.6-3,2.5-5,2.4c-2.6,0.2-4.8-1.7-5-4.3
	c0-0.1,0-0.3,0-0.4c0-3.9,3.5-6.1,9.8-6v-0.3c0-1.3-0.4-3.8-3.7-3.8c-1.5,0-2.9,0.4-4.2,1.2l-0.7-2c1.6-0.9,3.5-1.4,5.4-1.4
	c5,0,6.2,3.4,6.2,6.7L246.2,20z M243.3,15.6c-3.2-0.1-6.9,0.5-6.9,3.7c-0.1,1.4,0.9,2.7,2.3,2.8c0.1,0,0.3,0,0.4,0
	c1.8,0.1,3.4-1,4-2.7c0.1-0.3,0.1-0.6,0.1-0.9V15.6z"/>
<path class="st0" d="M250.9,12c0-1.7,0-3.1-0.1-4.4h2.6l0.2,2.7h0.1c1.1-1.9,3.2-3.1,5.4-3c2.3,0,5.8,1.4,5.8,6.9v9.7h-3v-9.4
	c0-2.6-1-4.8-3.8-4.8c-1.8,0-3.4,1.2-4,3c-0.1,0.4-0.2,0.9-0.2,1.4v9.8h-3L250.9,12z"/>
<path class="st0" d="M272.5,15.1L272.5,15.1c0.5-0.6,1-1.3,1.5-1.9l4.8-5.6h3.5l-6.3,6.7l7.2,9.6h-3.6l-5.6-7.8l-1.5,1.7v6.1h-3V0h3
	L272.5,15.1z"/>
<rect x="69.4" y="31.4" class="st2" width="1.4" height="10.6"/>
<path class="st2" d="M84.1,36.4c0-0.8,0-1.4-0.1-2h1.2l0.1,1.2l0,0c0.5-0.9,1.5-1.4,2.5-1.4c1.1,0,2.7,0.6,2.7,3.2V42h-1.4v-4.4
	c0-1.2-0.4-2.3-1.8-2.3c-0.9,0-1.6,0.6-1.8,1.4c-0.1,0.2-0.1,0.4-0.1,0.6v4.6h-1.3V36.4z"/>
<path class="st2" d="M105.3,32.5v1.8h2v1h-2v4.1c0,0.9,0.3,1.5,1,1.5c0.3,0,0.5,0,0.8-0.1l0.1,1c-0.4,0.1-0.8,0.2-1.2,0.2
	c-0.6,0-1.1-0.2-1.5-0.6c-0.4-0.6-0.6-1.3-0.5-2v-4h-1.2v-1h1.2V33L105.3,32.5z"/>
<path class="st2" d="M120.5,38.4c-0.1,1.3,0.9,2.5,2.2,2.6c0.1,0,0.3,0,0.4,0c0.7,0,1.4-0.1,2.1-0.4l0.3,1c-0.8,0.3-1.7,0.5-2.5,0.5
	c-2,0.1-3.6-1.4-3.7-3.3c0-0.2,0-0.3,0-0.5c0-2.3,1.4-4.1,3.6-4.1c2.5,0,3.1,2.2,3.1,3.6c0,0.2,0,0.4-0.1,0.7L120.5,38.4z
	 M124.5,37.4c0.1-1.1-0.6-2.1-1.7-2.2c0,0-0.1,0-0.1,0c-1.2,0.1-2.1,1.1-2.1,2.2H124.5z"/>
<path class="st2" d="M138.5,36.7c0-0.9,0-1.7-0.1-2.4h1.2l0.1,1.5l0,0c0.3-1,1.1-1.6,2.1-1.7c0.1,0,0.2,0,0.4,0v1.3
	c-0.2,0-0.3,0-0.5,0c-1,0-1.8,0.8-1.9,1.8c0,0.2,0,0.4,0,0.7v4h-1.4L138.5,36.7z"/>
<path class="st2" d="M154.6,36.4c0-0.8,0-1.4-0.1-2h1.2l0.1,1.2l0,0c0.5-0.9,1.5-1.4,2.5-1.4c1.1,0,2.7,0.6,2.7,3.2V42h-1.4v-4.4
	c0-1.2-0.5-2.3-1.8-2.3c-0.9,0-1.6,0.6-1.9,1.4c-0.1,0.2-0.1,0.4-0.1,0.6v4.6h-1.4L154.6,36.4z"/>
<path class="st2" d="M179.7,40.1c0,0.6,0,1.2,0.1,1.8h-1.2l-0.1-1l0,0c-0.5,0.7-1.4,1.2-2.3,1.1c-1.2,0.1-2.2-0.8-2.3-2
	c0-0.1,0-0.1,0-0.2c0-1.8,1.6-2.8,4.6-2.8v-0.2c0.1-0.9-0.5-1.6-1.3-1.8c-0.1,0-0.3,0-0.4,0c-0.7,0-1.4,0.2-2,0.6l-0.3-0.9
	c0.8-0.4,1.6-0.7,2.5-0.7c2.3,0,2.9,1.6,2.9,3.1L179.7,40.1z M178.3,38.1c-1.5,0-3.2,0.2-3.2,1.7c-0.1,0.7,0.4,1.3,1.1,1.3
	c0.1,0,0.1,0,0.2,0c0.9,0.1,1.7-0.5,1.9-1.3c0-0.1,0.1-0.3,0.1-0.4L178.3,38.1z"/>
<path class="st2" d="M194.4,32.5v1.8h2v1h-2v4.1c0,0.9,0.3,1.5,1,1.5c0.3,0,0.5,0,0.8-0.1l0.1,1c-0.4,0.1-0.8,0.2-1.2,0.2
	c-0.6,0-1.1-0.2-1.5-0.6c-0.4-0.6-0.6-1.3-0.5-2v-4h-1.2v-1h1.2V33L194.4,32.5z"/>
<path class="st2" d="M209.6,33c-0.5,0-0.9-0.4-0.8-0.9c0-0.5,0.4-0.9,0.9-0.8c0.5,0,0.8,0.4,0.8,0.9C210.5,32.5,210.1,32.9,209.6,33
	C209.6,33,209.6,33,209.6,33L209.6,33z M208.9,34.4h1.4v7.6h-1.4L208.9,34.4z"/>
<path class="st2" d="M226.6,42.1c-2,0-3.6-1.6-3.7-3.6c0-0.1,0-0.2,0-0.3c-0.2-2,1.4-3.8,3.4-4c0.1,0,0.2,0,0.4,0
	c2,0,3.6,1.5,3.7,3.5c0,0.1,0,0.3,0,0.4c0.2,2-1.4,3.8-3.4,4C226.8,42.1,226.7,42.1,226.6,42.1L226.6,42.1z M226.6,41.1
	c1.3,0,2.3-1.2,2.3-3c0-1.3-0.6-2.9-2.3-2.9s-2.3,1.5-2.3,3C224.3,39.9,225.2,41.1,226.6,41.1L226.6,41.1z"/>
<path class="st2" d="M243.1,36.4c0-0.8,0-1.4-0.1-2h1.3l0.1,1.2l0,0c0.5-0.9,1.5-1.4,2.5-1.4c1,0,2.7,0.6,2.7,3.2V42h-1.4v-4.4
	c0-1.2-0.5-2.3-1.8-2.3c-0.9,0-1.6,0.6-1.9,1.4c-0.1,0.2-0.1,0.4-0.1,0.6v4.6h-1.4V36.4z"/>
<path class="st2" d="M268.1,40.1c0,0.6,0,1.2,0.1,1.8h-1.2l-0.1-1l0,0c-0.5,0.7-1.4,1.2-2.3,1.1c-1.2,0.1-2.2-0.8-2.3-2
	c0-0.1,0-0.1,0-0.2c0-1.8,1.6-2.8,4.6-2.8v-0.2c0.1-0.9-0.5-1.6-1.3-1.8c-0.1,0-0.3,0-0.4,0c-0.7,0-1.4,0.2-2,0.6l-0.3-0.9
	c0.8-0.4,1.6-0.7,2.5-0.7c2.3,0,2.9,1.6,2.9,3.1L268.1,40.1z M266.7,38.1c-1.5,0-3.2,0.2-3.2,1.7c-0.1,0.7,0.4,1.3,1.1,1.3
	c0.1,0,0.1,0,0.2,0c0.8,0,1.6-0.5,1.9-1.3c0-0.1,0.1-0.3,0.1-0.4V38.1z"/>
<rect x="281.2" y="30.8" class="st2" width="1.4" height="11.1"/>
</svg>
